<svg width="1024" height="1024" viewBox="0 0 1024 1024" fill="none" xmlns="http://www.w3.org/2000/svg">
  <!-- Background Circle -->
  <circle cx="512" cy="512" r="512" fill="#1e3a8a"/>
  
  <!-- Book -->
  <rect x="300" y="400" width="424" height="280" rx="20" fill="#ffffff"/>
  <rect x="320" y="420" width="384" height="240" rx="10" fill="#f8fafc"/>
  
  <!-- Book Pages -->
  <rect x="340" y="440" width="344" height="200" rx="5" fill="#ffffff"/>
  <rect x="360" y="460" width="304" height="8" rx="4" fill="#e2e8f0"/>
  <rect x="360" y="480" width="280" height="8" rx="4" fill="#e2e8f0"/>
  <rect x="360" y="500" width="304" height="8" rx="4" fill="#e2e8f0"/>
  <rect x="360" y="520" width="260" height="8" rx="4" fill="#e2e8f0"/>
  <rect x="360" y="540" width="304" height="8" rx="4" fill="#e2e8f0"/>
  <rect x="360" y="560" width="240" height="8" rx="4" fill="#e2e8f0"/>
  <rect x="360" y="580" width="304" height="8" rx="4" fill="#e2e8f0"/>
  <rect x="360" y="600" width="280" height="8" rx="4" fill="#e2e8f0"/>
  <rect x="360" y="620" width="304" height="8" rx="4" fill="#e2e8f0"/>
  
  <!-- Graduation Cap -->
  <path d="M512 200 L800 350 L512 500 L224 350 L512 200 Z" fill="#ffffff"/>
  <path d="M224 350 L224 450 L800 450 L800 350" fill="#ffffff"/>
  <rect x="500" y="450" width="24" height="80" fill="#ffffff"/>
  
  <!-- KASNEB Text -->
  <text x="512" y="720" text-anchor="middle" font-family="Arial, sans-serif" font-size="48" font-weight="bold" fill="#ffffff">KASNEB</text>
  <text x="512" y="760" text-anchor="middle" font-family="Arial, sans-serif" font-size="32" fill="#ffffff">MATERIALS</text>
</svg>
